<?xml version="1.0" encoding="utf-8"?>
<!-- Generator: Adobe Illustrator 18.1.1, SVG Export Plug-In . SVG Version: 6.00 Build 0)  -->
<svg version="1.1" id="Layer_1" xmlns="http://www.w3.org/2000/svg" xmlns:xlink="http://www.w3.org/1999/xlink" x="0px" y="0px"
	 width="640px" height="480px" viewBox="0 0 640 480" enable-background="new 0 0 640 480" xml:space="preserve">
<g id="Layer_1_1_" display="none">
	<g id="hkm3xi_1_" display="inline">
	</g>
</g>
<g id="What_we_Do_Ring" display="none">
	<g display="inline">
		<path fill="#46A8C6" d="M745.3,144.9c-142.5-77.9-325.3-76.3-465.1,6.9C137.9,231.5,45.6,389.1,42.2,551.5
			c-6.1,162.7,78.8,324.3,215.9,412c135.1,89.9,318.1,103,464,31.7l9.9,20.9c-153.1,74.8-344.9,61.1-486.7-33.2
			c-143.7-92-232.8-261.5-226.5-432c3.5-170.2,100.5-335.6,249.5-419.1c146.7-87.3,338.3-89,487.7-7.3L745.3,144.9z"/>
		<path fill="#FFB700" d="M575.5,52C357.7,24.7,133.5,154.6,46.9,355.9C-44.5,555.4,11.6,808.3,178,951.1l-34.1,38.7
			C-39.1,833-100.9,554.4-0.1,335.1C95,113.5,341.5-29.3,581.2,0.7L575.5,52z"/>
		<path fill="#1E428A" d="M889.9,174.5C777.5,66.3,616.3,10.7,461.2,28.7C305.9,45.1,159.9,132.3,72.8,261.9
			C-15.3,391.1-42.5,558.6-0.3,708.9c40.8,151,152.1,279.6,293.7,344.9l5.4-11.7C160.5,978.5,51.9,852.9,12,705.5
			C-29.1,558.8-2.5,395.2,83.4,269.2C168.3,142.6,310.9,57.5,462.5,41.5C613.9,23.9,771.3,78.2,881,183.8L889.9,174.5z"/>
		<path fill="#FFB700" d="M884.8,204.5C763.4,79.5,576.3,24.2,406.6,63.5C236.1,100,90.5,229.9,34.1,394.9
			c-58.9,163.7-25.6,356.3,84.4,491.3c108.2,136.2,289.2,210.3,461.7,187.7l0.5,4.3c-174,22.7-356.5-51.9-465.7-189.3
			C4.2,752.8-29.3,558.6,30,393.5C86.9,227.1,233.7,96,405.7,59.3c171.1-39.7,359.8,16.1,482.3,142.2L884.8,204.5z"/>
	</g>
</g>
<g id="Clients_Ring" display="none">
	<g display="inline">
		<g>
			<path fill="#FFB500" d="M750.1,147.2c-139.2-79.8-319.9-82-459.8-2.5C148.2,220.5,53.7,374.3,47,534.8
				c-9.3,160.6,71.5,322.1,205.1,411.5c131.6,91.5,312.3,108.2,457.9,40.7l9.4,20.9c-152.8,70.8-342.1,53.3-480.2-42.7
				C99.1,871.4,14.5,702.1,24.1,533.6c7-168.1,106.2-329.5,255.1-408.9c146.8-83.4,336.1-81.1,482.2,2.6L750.1,147.2z"/>
			<path fill="#8C2332" d="M584.2,51.9C369.5,20.5,145.4,144.3,55.8,341.5C-38.7,536.8,11.7,788,173.1,932.3l-34.5,37.5
				C-38.9,811.2-94.3,534.7,9.6,320c98.5-217,345-353.1,581.3-318.6L584.2,51.9z"/>
			<path fill="#FFFFFF" d="M892.4,179.3C783.6,70.1,625.3,11.9,471.7,26.6C317.9,39.7,171.9,122.8,83.1,249.1
				C-6.5,375.1-36.7,540,1.8,689.5c37.3,150,144.6,279.3,283.3,346.7l5.5-11.5C155.3,959,50.5,832.8,14.1,686.3
				c-37.6-145.9-8.1-307,79.3-429.9C180.1,133.2,322.7,52.1,472.7,39.3c150.1-14.4,304.5,42.5,410.7,149.1L892.4,179.3z"/>
			<path fill="#E7392C" d="M886.8,208.9C769.3,82.9,585.6,24.4,417,59.9C247.8,92.5,101.4,218,42.3,379.7
				C-19.2,540.5,9.8,731.3,115.7,867c104.3,136.8,281.6,213.6,452.6,194.8l0.4,4.3c-172.5,18.9-351.2-58.5-456.4-196.5
				c-106.8-136.8-136-329.3-74-491.3C97.9,215,245.5,88.5,416.2,55.6c169.9-35.7,355.3,23.2,473.7,150.3L886.8,208.9z"/>
		</g>
	</g>
</g>
<g id="Services_Ring">
	<g>
		<path fill="#45A9C6" d="M717.8,247c-133.5-80.9-309.1-87.4-447-13.4C130.7,303.9,35.3,451.2,24.9,607
			C12,763,86.5,921.9,214.4,1012c125.8,92.2,301.1,112.7,444.2,50.6l8.7,20.5c-150.3,65.2-333.9,43.7-465.9-53
			C67.4,935.7-10.8,768.9,2.7,605.4c10.7-163.3,111.1-317.9,257.8-391.6c144.7-77.5,328.8-70.8,468.8,14.1L717.8,247z"/>
		<path fill="#FFB700" d="M558.7,150.4C350.7,114.7,129.9,229.7,38,419.3C-58.5,607-15.6,852.4,138,996.6l-34.5,35.7
			C-65.3,873.7-112.6,603.5-6.3,397.3C94.6,188.7,337.5,62.2,566.5,101.4L558.7,150.4z"/>
		<path fill="#8C2332" d="M855.4,281.7C752.2,172.9,599.8,112.5,450,123.1c-149.9,9-293.9,86.3-383.1,207
			C-23.3,450.5-56.7,610.1-22.8,756.4c32.7,146.7,133.9,275.1,267.1,343.9l5.7-11C120,1022.1,21,896.9-10.8,753.7
			c-33.1-142.7-0.5-298.7,87.5-416c87.1-117.9,227.8-193.4,374-202.2c146.3-10.3,295,48.6,395.8,154.8L855.4,281.7z"/>
		<path fill="#FFB700" d="M849.2,310.3C738.1,184.9,560.8,123.7,396.1,154.1C230.8,181.8,85.3,300.3,23.9,456.3
			C-39.7,611-16.1,797.3,83.7,931.7c98.1,135.6,268.6,214.5,435.3,200.3l0.3,4.1c-168.1,14.3-340.1-65.3-439-202
			C-20.3,798.6-44.1,610.7,20.2,454.7C82,297.4,228.6,177.9,395.3,150c166.1-30.7,344.8,31.1,457,157.5L849.2,310.3z"/>
	</g>
</g>
</svg>
