<?xml version="1.0" encoding="utf-8"?>
<!-- Generator: Adobe Illustrator 18.1.1, SVG Export Plug-In . SVG Version: 6.00 Build 0)  -->
<svg version="1.1" xmlns="http://www.w3.org/2000/svg" xmlns:xlink="http://www.w3.org/1999/xlink" x="0px" y="0px"
	 viewBox="0 0 1170 400" enable-background="new 0 0 1170 400" xml:space="preserve">
<g id="What_we_Do_Ring" display="none">
	<g display="inline">
		<path fill="#FFB500" d="M779.3-49.4c89.1,73.5,136.5,194.6,118.6,309c-15,115-94.5,217.7-200.9,263
			c-105.8,47.1-235,33.8-329.2-33.5c-95.1-65.4-152.3-182.8-143.8-298l-16.5-1c-8.8,121,51,243.9,150.8,312.5
			c98.8,70.6,234.3,84.5,345.2,35.1C815,490.4,898.6,382.5,914.2,262C933,142,883.4,15,789.8-62L779.3-49.4z"/>
		<path fill="#45A9C6" d="M885.7,38.2c75.7,136.6,49.2,319-60.7,429.5c-107.5,113.2-289.4,143.2-427.7,71.1l-16.5,32.8
			c152,79.3,352.3,46.3,470.4-78.3C972.3,371.8,1001.3,171.1,918,20.8L885.7,38.2z"/>
		<path fill="#E7392C" d="M721.5-137C822.7-91.5,902.1,0.2,931.3,107.5c30.3,106.9,11.4,226.4-51.1,318.2
			c-62,92.4-165.4,154.7-275.9,166.7C493.8,605.4,379.4,566,298.8,489.7l6.3-6.6c78.6,74.4,190.3,112.9,298.2,100.2
			c107.8-11.7,208.8-72.6,269.3-162.7C933.6,331,952,214.3,922.5,110C894,5.3,816.5-84.2,717.7-128.7L721.5-137z"/>
		<path fill="#45A9C6" d="M703-125.7c114.7,47.1,200.8,156,219.7,278.4c21.1,122.2-26.2,252.8-120.2,333.7
			c-92.5,82.3-228.5,111.3-346.8,74.4c-118.6-35.4-215.4-135.3-246.2-255.2l-3,0.8c31.1,120.9,128.7,221.7,248.3,257.4
			c119.3,37.2,256.4,7.9,349.7-75.1c94.8-81.6,142.4-213.2,121.2-336.5C906.7,28.7,819.9-81.1,704.2-128.6L703-125.7z"/>
	</g>
</g>
<g id="Clients_Ring">
	<g>
		<g>
			<path fill="#45A9C6" d="M803.9-24c82.1,81,118.5,205.8,90.4,318C869.2,407.1,780.9,502.2,671,537.8
				c-109.5,37.4-236.9,12.6-324.6-62.7c-88.8-73.5-135.2-195.4-116.5-309.4l-16.3-2.5c-19.6,119.5,29,247.3,122.2,324.4
				c92,79,225.6,104.9,340.4,65.8C791.3,516.2,884,416.3,910.4,297.8c29.4-117.7-8.7-248.5-94.8-333.5L803.9-24z"/>
			<path fill="#FFB500" d="M901.9,72.5c63.2,142.7,20.6,321.8-98.7,421.9c-117.1,103.1-300.8,116.7-431.9,32.7L352,558.2
				c144.1,92.4,346.4,77.5,475.1-36c131.3-110.1,178-307.1,108.6-464.1L901.9,72.5z"/>
			<path fill="#8C2332" d="M754.2-116.4c96.7,54.3,167.5,152.7,186.9,262c20.6,109.1-8.8,226.3-79.2,312.1
				C792,544,683.6,596.8,572.6,598.9c-111.1,3.1-221.4-46.3-294.8-129.4l6.9-6.1c71.6,81.1,179.3,129.3,287.8,126.3
				c108.3-2.1,214.2-53.6,282.4-137.9c68.7-83.8,97.4-198.2,77.3-304.6C913.2,40.6,844-55.4,749.7-108.5L754.2-116.4z"/>
			<path fill="#FFB500" d="M734.8-106.8c110,57.1,185.9,173.1,193.8,296.7C938.7,313.3,880,439,779.3,511.2
				c-99.5,73.6-237.3,90.3-351.7,43.2c-114.9-45.9-202.3-153.9-222.3-275.9l-3,0.5c20.1,123.1,108.3,232,224.1,278.3
				c115.4,47.6,254.4,30.7,354.7-43.5c101.6-72.8,160.7-199.5,150.6-324.1C923.7,65,847.1-52,736.2-109.6L734.8-106.8z"/>
		</g>
	</g>
</g>
<g id="Services_Ring" display="none">
	<g display="inline">
		<path fill="#45A9C6" d="M777.3-48.3C871,20.3,925.6,139.1,914.1,254.9c-8.3,116.2-82.2,223.9-186.3,275.5
			c-103.4,53.4-233.8,47.5-332.2-14.6c-99.2-60.1-163.4-174.6-161.6-290.6l-16.6-0.1c-1.9,121.9,65.3,241.8,169.4,304.8
			c103.2,65.1,240,71.2,348.4,15.2c109.1-54,186.6-167,195.3-288.8c11.9-121.5-45.2-246-143.5-317.9L777.3-48.3z"/>
		<path fill="#FFB700" d="M889.1,33.4C973,166,957,350.5,853,467.8c-101.3,119.8-282.1,160.4-425,96.1l-14.7,33.8
			c157.1,70.7,356.1,26.1,467.5-105.8c114.4-128.9,131.9-331.8,39.6-477.9L889.1,33.4z"/>
		<path fill="#214287" d="M714.2-132.9C818.4-93,903.4-5.6,938.8,100.3c36.6,105.5,24.6,226.5-32.8,322.2
			c-56.9,96.3-157,164.8-267.1,183.2c-110.1,19.5-227.1-13.5-312.4-85.3l6-7c83.2,70.1,197.5,102.3,304.9,83.3
			c107.5-18,205.3-84.9,260.7-178.9c56.1-93.4,67.8-211.5,32.1-314.5C895.5-0.1,812.6-85.4,710.9-124.3L714.2-132.9z"/>
		<path fill="#FEB600" d="M696.3-120.5C814.1-79.9,906.8,24.4,932.9,146.2c28.2,121.4-11.6,255.1-101.2,341.8
			c-88.1,87.9-222.8,124.9-343.6,94.7C367,554,264.1,459.4,226.2,340.9l-2.9,1c38.2,119.5,141.9,214.9,264,243.8
			c121.9,30.4,257.7-6.9,346.5-95.6C924.2,402.8,964.4,268,936,145.5C909.6,22.7,816.2-82.5,697.3-123.4L696.3-120.5z"/>
	</g>
</g>
</svg>
