<?xml version="1.0" encoding="utf-8"?>
<!-- Generator: Adobe Illustrator 18.1.1, SVG Export Plug-In . SVG Version: 6.00 Build 0)  -->
<svg version="1.1" id="Layer_1" xmlns="http://www.w3.org/2000/svg" xmlns:xlink="http://www.w3.org/1999/xlink" x="0px" y="0px"
	 width="640px" height="480px" viewBox="0 0 640 480" enable-background="new 0 0 640 480" xml:space="preserve">
<g id="Layer_1_1_" display="none">
	<g id="_x37_eCGgc_1_" display="inline">
		
			<image overflow="visible" enable-background="new    " width="1170" height="898" id="_x37_eCGgc_2_" xlink:href="../../../../../../Users/neil.hope/Dropbox/WORK/ICLP Website/Website Assets/source files/63564AEB1725F6C1.jpg"  transform="matrix(0.5468 0 0 0.5468 0.132 99.6173)">
		</image>
	</g>
</g>
<g id="What_we_Do_Ring" display="none">
	<g display="inline">
		<path fill="#46A8C6" d="M426.3,103.6c48.7,40.2,74.7,106.4,64.9,169c-8.2,62.9-51.7,119.1-109.9,143.9
			c-57.9,25.8-128.5,18.5-180.1-18.3c-52-35.8-83.3-100-78.7-163l-9-0.5c-4.8,66.2,27.9,133.4,82.5,170.9
			c54,38.6,128.2,46.2,188.8,19.2c61-25.9,106.7-84.9,115.3-150.8c10.3-65.6-16.8-135.1-68-177.2L426.3,103.6z"/>
		<path fill="#FFB700" d="M484.5,151.5c41.4,74.7,26.9,174.5-33.2,234.9c-58.8,61.9-158.3,78.3-234,38.9l-9,17.9
			c83.1,43.4,192.7,25.3,257.3-42.8c66.2-66.5,82.1-176.2,36.5-258.5L484.5,151.5z"/>
		<path fill="#1E428A" d="M394.7,55.7c55.4,24.9,98.8,75,114.8,133.7c16.6,58.5,6.2,123.8-28,174.1c-33.9,50.5-90.5,84.6-150.9,91.2
			c-60.4,7.1-123-14.4-167.1-56.2l3.4-3.6c43,40.7,104.1,61.8,163.1,54.8c59-6.4,114.2-39.7,147.3-89c33.4-49,43.4-112.8,27.3-169.9
			c-15.6-57.3-58-106.2-112-130.6L394.7,55.7z"/>
		<path fill="#FFB700" d="M384.5,61.8c62.7,25.8,109.8,85.3,120.2,152.3c11.5,66.8-14.3,138.3-65.8,182.5
			c-50.6,45-125,60.9-189.7,40.7c-64.9-19.4-117.8-74-134.7-139.6l-1.6,0.4c17,66.1,70.4,121.3,135.8,140.8
			c65.3,20.3,140.3,4.3,191.3-41.1c51.9-44.6,77.9-116.6,66.3-184.1C496,146.3,448.5,86.2,385.2,60.3L384.5,61.8z"/>
	</g>
</g>
<g id="Clients_Ring" display="none">
	<g display="inline">
		<g>
			<path fill="#FFB500" d="M439.7,117.5c44.9,44.3,64.8,112.6,49.4,173.9c-13.7,61.9-62,113.9-122.1,133.4
				c-59.9,20.5-129.6,6.9-177.6-34.3c-48.6-40.2-74-106.9-63.7-169.2l-8.9-1.4c-10.7,65.4,15.9,135.3,66.8,177.4
				c50.3,43.2,123.4,57.4,186.2,36c63-20.3,113.7-75,128.1-139.8c16.1-64.4-4.8-135.9-51.9-182.4L439.7,117.5z"/>
			<path fill="#8C2332" d="M493.3,170.3c34.6,78.1,11.3,176-54,230.8c-64.1,56.4-164.5,63.8-236.3,17.9l-10.6,17
				c78.8,50.5,189.5,42.4,259.9-19.7c71.8-60.2,97.4-168,59.4-253.9L493.3,170.3z"/>
			<path fill="#FFFFFF" d="M412.6,66.9c52.9,29.7,91.6,83.5,102.2,143.3C526.1,269.9,510,334,471.5,381
				c-38.2,47.2-97.5,76.1-158.2,77.2c-60.8,1.7-121.1-25.3-161.3-70.8l3.8-3.3c39.2,44.4,98.1,70.7,157.4,69.1
				c59.2-1.1,117.2-29.3,154.5-75.4c37.6-45.8,53.3-108.4,42.3-166.6c-10.4-58.3-48.2-110.8-99.8-139.9L412.6,66.9z"/>
			<path fill="#E7392C" d="M401.9,72.2c60.2,31.2,101.7,94.7,106,162.3c5.5,67.5-26.6,136.3-81.7,175.8
				c-54.4,40.3-129.8,49.4-192.4,23.6c-62.9-25.1-110.7-84.2-121.6-150.9l-1.6,0.3c11,67.3,59.2,126.9,122.6,152.2
				c63.1,26,139.2,16.8,194-23.8c55.6-39.8,87.9-109.1,82.4-177.3c-4.4-68.2-46.3-132.2-106.9-163.7L401.9,72.2z"/>
		</g>
	</g>
</g>
<g id="Services_Ring">
	<g>
		<path fill="#E63C2F" d="M425.2,104.2c51.3,37.5,81.1,102.5,74.8,165.9c-4.5,63.6-45,122.5-101.9,150.7
			c-56.6,29.2-127.9,26-181.7-8c-54.3-32.9-89.4-95.5-88.4-159l-9.1-0.1c-1,66.7,35.7,132.3,92.7,166.7
			c56.5,35.6,131.3,38.9,190.6,8.3c59.7-29.5,102.1-91.4,106.8-158c6.5-66.5-24.7-134.6-78.5-173.9L425.2,104.2z"/>
		<path fill="#FFB700" d="M486.3,148.9c45.9,72.5,37.1,173.5-19.7,237.6c-55.4,65.5-154.3,87.7-232.5,52.6l-8,18.5
			c85.9,38.7,194.8,14.3,255.7-57.9c62.6-70.5,72.2-181.5,21.7-261.4L486.3,148.9z"/>
		<path fill="#8B2332" d="M390.7,57.9c57,21.8,103.5,69.6,122.9,127.6c20,57.7,13.5,123.9-17.9,176.2
			c-31.1,52.7-85.9,90.1-146.1,100.2c-60.2,10.7-124.2-7.4-170.9-46.7l3.3-3.8c45.5,38.3,108,56,166.8,45.6
			c58.8-9.8,112.3-46.4,142.6-97.9c30.7-51.1,37.1-115.7,17.6-172c-19-56.6-64.3-103.2-120-124.5L390.7,57.9z"/>
		<path fill="#E63C2F" d="M380.9,64.7c64.4,22.2,115.1,79.3,129.4,145.9c15.4,66.4-6.3,139.5-55.4,187
			c-48.2,48.1-121.9,68.3-188,51.8c-66.2-15.7-122.5-67.4-143.3-132.3l-1.6,0.5C143,383,199.8,435.2,266.6,451
			c66.7,16.6,141-3.8,189.5-52.3c49.4-47.8,71.4-121.5,55.9-188.5C497.6,143,446.5,85.5,381.4,63.1L380.9,64.7z"/>
	</g>
</g>
</svg>
