<?xml version="1.0" encoding="utf-8"?>
<!-- Generator: Adobe Illustrator 18.1.1, SVG Export Plug-In . SVG Version: 6.00 Build 0)  -->
<svg version="1.1" id="Layer_2" xmlns="http://www.w3.org/2000/svg" xmlns:xlink="http://www.w3.org/1999/xlink" x="0px" y="0px"
	 viewBox="0 0 1170 1000" enable-background="new 0 0 1170 1000" xml:space="preserve">
<g>
	<g>
		<path fill="#45A9C6" d="M901.6,718.6C1032.8,473,1027.2,159.5,882.1-79C743.2-321.7,471.5-477.5,192.8-480.9
			c-279-7.7-554.9,140.6-703.1,377.1c-152,233-171.5,547.2-46.9,796.4L-593,710c-130.7-261.5-110.3-590.6,49.2-835.2
			c155.4-248,444.6-403.5,737.3-395.5c292,3.4,577.2,167.1,722.8,421.3c152.1,250.3,158.1,578.8,20.4,836.5L901.6,718.6z"/>
		<path fill="#FFB500" d="M1058.3,425.9c43.4-374.1-183.1-756.4-529.7-901.6C184.9-629.5-248.2-529.1-490.2-241.5l-66.8-57.8
			c265.9-316.3,742.7-426.8,1120.5-257.5C945-397.2,1193.8,23.3,1146.2,434.8L1058.3,425.9z"/>
		<path fill="#8C2332" d="M853.2,967.1c183.8-194.4,276.6-471.9,243.1-737.7C1065.7-36.7,913.9-285.7,690.1-433
			c-223-148.9-510.7-192.9-768.1-118.2c-258.3,72.5-477,265.4-586.6,509.5l20.2,9c107-238.2,320.5-426.5,572.6-497.3
			c251.1-72.8,532-29.9,749.7,115.4C896.3-270.8,1044.4-27.7,1074.4,232c32.7,259.5-57.9,530.3-237.3,720.1L853.2,967.1z"/>
		<path fill="#FFB500" d="M801.6,958.9c212.5-210.3,304.4-532,234.1-822.5C970.5-155.4,745.2-403,461.5-497.1
			C179.5-595.5-150.1-535.2-380-344.6c-231.9,188-355.9,499.5-314.5,795.1l-7.4,1c-41.8-298.1,83.3-612.3,317.1-801.8
			c231.8-192.3,564.2-253,848.5-153.9C750-409.3,977.2-159.6,1043,134.7c70.8,292.9-21.8,617.4-236.1,829.5L801.6,958.9z"/>
	</g>
</g>
</svg>
