<?xml version="1.0" encoding="utf-8"?>
<!-- Generator: Adobe Illustrator 18.1.1, SVG Export Plug-In . SVG Version: 6.00 Build 0)  -->
<svg version="1.1" xmlns="http://www.w3.org/2000/svg" xmlns:xlink="http://www.w3.org/1999/xlink" x="0px" y="0px"
	 width="1318.6px" height="1091.9px" viewBox="0 0 1318.6 1091.9" enable-background="new 0 0 1318.6 1091.9" xml:space="preserve">
<g id="Layer_2" display="none">
	<g id="AltiH3_1_" display="inline">
		
			<image overflow="visible" width="1326" height="912" id="AltiH3_2_" xlink:href="63490FBD30DDAE07.jpg"  transform="matrix(1 0 0 1 0 -111.1395)">
		</image>
	</g>
</g>
<g id="LOGO">
	<g>
		<defs>
			<rect id="SVGID_1_" x="245.6" y="-17.1" width="1103.9" height="1133.9"/>
		</defs>
		<clipPath id="SVGID_2_">
			<use xlink:href="#SVGID_1_"  overflow="visible"/>
		</clipPath>
		<g id="Services_Ring" clip-path="url(#SVGID_2_)">
			<g>
				<path fill="#45A9C6" d="M1086.2,162.3c99.4,156.3,111.4,364.3,27.2,529.9c-79.9,167.7-252.3,284.9-436.7,301
					c-184.6,19.2-375.1-65.3-485.2-214.6C79,631.7,50.3,424.5,120.4,252.9l23.4,9.3C77,425.6,104.5,623.4,211.8,763.4
					c105,142.5,286.5,223,462.6,204.7c176-15.5,340.3-127,416.4-287.1c80.4-157.7,68.8-356.2-25.9-505.3L1086.2,162.3z"/>
				<path fill="#FFB700" d="M1233.3,343.4c49.8,258-87.4,535.8-320.9,655c-230.8,125.1-537.5,78.2-720.9-109l39.5-39.8
					c166.8,170.3,445.4,212.9,655.3,99.3c212.2-108.5,337.1-361,291.7-595.4L1233.3,343.4z"/>
				<path fill="#8C2332" d="M1012.9,31.2c122.5,111.5,192.8,278.3,184.6,444c-6.4,165.6-88.5,326.5-219.7,427.9
					c-130.6,102.3-306.2,142.9-468.4,108.9C346.6,979.4,202.6,870.5,123.5,725l-12.3,6.7c81,149,228.6,260.5,395.3,293.9
					c166.3,34.9,346-6.7,480-111.6c134.3-103.9,218.4-268.5,224.9-438.3c8.5-169.7-63.6-340.6-189.1-454.7L1012.9,31.2z"/>
				<path fill="#FFB700" d="M993.3,25c145.7,123.9,219.8,324.5,189.1,513.1c-27.5,189.3-159.2,357.9-335.6,431.6
					c-174.9,76.4-388,54-543.8-56.5C146,804.7,51.9,612,64,421.5l4.7,0.3c-12,188.9,81.3,379.9,237,487.6
					c154.4,109.7,365.7,131.8,539.2,56.2c175-73.2,305.5-240.6,332.8-428.2c30.4-187.1-43-386.1-187.5-508.8L993.3,25z"/>
			</g>
		</g>
	</g>
</g>
</svg>
