<?xml version="1.0" encoding="utf-8"?>
<!-- Generator: Adobe Illustrator 18.1.1, SVG Export Plug-In . SVG Version: 6.00 Build 0)  -->
<svg version="1.1" id="Layer_1" xmlns="http://www.w3.org/2000/svg" xmlns:xlink="http://www.w3.org/1999/xlink" x="0px" y="0px"
	 viewBox="0 0 1170 1170" enable-background="new 0 0 1170 1170" xml:space="preserve">
<g>
	<g>
		<path fill="#8C2332" d="M910.1,152.9c92.6,132.4,111.1,313.5,44.1,461c-63.2,149.4-209,258.1-369.3,279.3
			c-160.2,23.8-329.5-42.5-431.3-168.6C49.8,600.8,16.8,421.2,71.3,268.9l-21.8-7.5c-57.2,159.7-22.6,348,86.2,477.8
			C242.4,871.4,419.9,940.9,588,916c168-22.2,321-136.3,387.3-292.9c70.3-154.7,51-344.5-46.2-483.4L910.1,152.9z"/>
		<path fill="#FFFFFF" d="M1020.7,310.7c50.9,212.5-53.1,448.5-242.7,556.2c-187.4,112.4-443.9,84.6-603.2-64.3l-34.5,38
			c175.1,163.8,457.5,194.4,663.5,70.7c208.8-118.4,323-378,267-611.8L1020.7,310.7z"/>
		<path fill="#FFB500" d="M865,13.1c119.4,99.3,192.1,252.7,191.2,408.2c0.8,155.5-69.4,309.4-188.1,409.8
			C749.9,932.4,587.2,977.7,433.7,952.5C279.9,928.6,140.4,832.6,60.4,699.6l11-6.6c78.1,129.8,214.2,223.6,364.4,246.8
			c149.8,24.6,308.6-19.6,424-118.4c115.9-98,184.4-248.4,183.6-400.1c0.9-151.8-70.1-301.6-186.6-398.5L865,13.1z"/>
		<path fill="#E7392C" d="M835.8,21.4c137,106.4,212.3,285.5,191.9,457.7c-17.4,172.7-130,330.9-287,404.9
			c-155.6,76.2-349.7,64.3-495.4-29.6C98.7,762.1,5.7,591.2,9,418l-4.3,0C1.3,592.6,95.2,765,243,858
			c146.9,94.7,342.6,106.7,499.6,29.9c158.3-74.5,271.9-234.1,289.5-408.3c20.5-173.7-55.4-354.2-193.5-461.6L835.8,21.4z"/>
	</g>
</g>
</svg>
