<?xml version="1.0" encoding="utf-8"?>
<!-- Generator: Adobe Illustrator 18.1.1, SVG Export Plug-In . SVG Version: 6.00 Build 0)  -->
<svg version="1.1" xmlns="http://www.w3.org/2000/svg" xmlns:xlink="http://www.w3.org/1999/xlink" x="0px" y="0px"
	 viewBox="0 0 680.3 198.4" enable-background="new 0 0 680.3 198.4" xml:space="preserve">
<g id="_x39__PFA_Cleaned_Up">
	<g>
		<rect x="240.1" y="35.9" fill="#807F82" stroke="#807F83" stroke-miterlimit="10" width="10.5" height="141.1"/>
		<path fill="#807F82" stroke="#807F83" stroke-miterlimit="10" d="M277.5,106.9v-0.4c0-39.9,29.8-73,70.6-73
			c25.2,0,40.3,9.3,54.8,22.6l-7.5,7.7c-12.3-11.9-26.4-20.8-47.6-20.8c-33.9,0-59.5,27.6-59.5,63.1v0.4c0,35.7,26,63.5,59.7,63.5
			c20.4,0,34.3-7.9,48.6-22l7,6.9c-14.9,14.7-31,24.6-56,24.6C307.3,179.4,277.5,147.4,277.5,106.9"/>
		<polyline fill="#807F82" stroke="#807F83" stroke-miterlimit="10" points="434,35.9 444.5,35.9 444.5,167.4 527.3,167.4 
			527.3,177 434,177 434,35.9 		"/>
		<path fill="#807F82" stroke="#807F83" stroke-miterlimit="10" d="M551,35.9h51.2c31.1,0,52.4,15.9,52.4,43.2v0.4
			c0,29.6-25.6,45-55,45h-38.1V177H551V35.9 M600.2,114.7c26.2,0,43.9-13.7,43.9-34.7v-0.4c0-22.4-17.3-34.1-42.7-34.1h-39.9v69.2
			H600.2z"/>
	</g>
	<linearGradient id="SVGID_1_" gradientUnits="userSpaceOnUse" x1="72.9652" y1="180.1155" x2="72.9652" y2="78.6818">
		<stop  offset="0.227" style="stop-color:#1D4880"/>
		<stop  offset="0.3439" style="stop-color:#2A6A9A"/>
		<stop  offset="0.495" style="stop-color:#398FB7"/>
		<stop  offset="0.6168" style="stop-color:#43A7C9"/>
		<stop  offset="0.6933" style="stop-color:#46AFD0"/>
		<stop  offset="0.761" style="stop-color:#4EB1D2"/>
		<stop  offset="0.8671" style="stop-color:#65B8D6"/>
		<stop  offset="0.908" style="stop-color:#6FBBD8"/>
	</linearGradient>
	<path fill="url(#SVGID_1_)" d="M75.5,78.7c-22.5,0-41.9,10.3-49.1,15.4c-0.2,0.2-0.3,0.2-0.5,0.4l-0.1,0.1
		c-0.5,0.4-1.2,1.3-1.2,2.1c0,1.6,1.2,2.1,2.6,2c0.3,0,0.6-0.1,0.9-0.2l0,0c70-27.2,70.2,50.1,64.7,75.4l0,0l-0.1,0.3
		c0,0.1,0,0.2,0,0.3c-0.2,2.3,1.6,10.2,11.8,2.1c3.3-2.6,8.8-9.3,14.5-18.6C124,132.2,125.6,78.7,75.5,78.7z"/>
	<path opacity="0.16" fill="#FFFFFF" d="M75.5,78.7c-22.5,0-41.9,10.3-49.1,15.4c-0.2,0.2-0.3,0.2-0.5,0.4l-0.1,0.1
		c-0.5,0.4-1.2,1.3-1.2,2.1c0,1.6,1.2,2.1,2.6,2c0.3,0,0.6-0.1,0.9-0.2l0,0c70-27.2,70.1,50.2,64.7,75.5l0,0.2c0,0.1,0,0.2,0,0.3
		c-0.2,2.3,1.6,10.2,11.8,2.1c3.3-2.6,8.8-9.3,14.5-18.6C124,132.2,125.6,78.7,75.5,78.7z"/>
	<linearGradient id="SVGID_2_" gradientUnits="userSpaceOnUse" x1="107.0049" y1="180.0856" x2="107.0049" y2="105.0177">
		<stop  offset="0.2025" style="stop-color:#1D4880"/>
		<stop  offset="0.4832" style="stop-color:#2F76A4"/>
		<stop  offset="0.8037" style="stop-color:#46AFD0"/>
	</linearGradient>
	<path fill="url(#SVGID_2_)" d="M92.7,174.3c0,0.1,0,0.1,0,0.2c-0.2,2.3,1.5,10.2,11.8,2.1c3.3-2.6,8.8-9.3,14.5-18.6
		c2.7-13.8,4.4-35.7-2.4-52.9C116.4,142.4,104,162.1,92.7,174.3z"/>
	<linearGradient id="SVGID_3_" gradientUnits="userSpaceOnUse" x1="75.6031" y1="134.8513" x2="182.5417" y2="95.9288">
		<stop  offset="0" style="stop-color:#F9A620"/>
		<stop  offset="0.1106" style="stop-color:#F39921"/>
		<stop  offset="0.3173" style="stop-color:#E57523"/>
		<stop  offset="0.5957" style="stop-color:#CD3C26"/>
		<stop  offset="0.7178" style="stop-color:#C22128"/>
		<stop  offset="0.8896" style="stop-color:#A21D2A"/>
	</linearGradient>
	<path fill="url(#SVGID_3_)" d="M117.4,56.1c0.1,0,0.2,0,0.3,0c16,0.5,20.4,14.2,21.3,17.2c12.2,40.1-23.7,94.5-34.5,103.1
		c-8.7,6.9-11.3,2.1-11.7-0.8c0,0,0-0.1,0-0.1c0,0,0,0,0-0.1c0,0,0,0,0,0c-0.1-0.5-0.1-0.9,0-1.2c-3,13.5,8.1,16.9,22.8,9.1
		c20.9-11.1,45.1-45.4,56.2-69.1l0.8-1.8C188.2,78.5,172.6,55.2,117.4,56.1z"/>
	<linearGradient id="SVGID_4_" gradientUnits="userSpaceOnUse" x1="182.894" y1="91.7898" x2="118.3044" y2="54.499">
		<stop  offset="3.680980e-02" style="stop-color:#790708"/>
		<stop  offset="0.2726" style="stop-color:#AD161A"/>
		<stop  offset="0.4785" style="stop-color:#D62229"/>
	</linearGradient>
	<path fill="url(#SVGID_4_)" d="M117.4,56.1c0.1,0,0.2,0,0.3,0c16,0.5,20.4,14.2,21.3,17.2c0.4,1.4,0.8,2.8,1.1,4.2
		c22,2.2,33.6,11.6,36,26.2C185.1,74.5,167.7,55.3,117.4,56.1z"/>
	<linearGradient id="SVGID_5_" gradientUnits="userSpaceOnUse" x1="31.334" y1="33.6623" x2="182.9191" y2="88.8347">
		<stop  offset="1.840490e-02" style="stop-color:#203E78"/>
		<stop  offset="0.1718" style="stop-color:#203E78"/>
		<stop  offset="0.4847" style="stop-color:#009CC9"/>
		<stop  offset="0.8037" style="stop-color:#B6D8EB"/>
		<stop  offset="0.8181" style="stop-color:#B1D7EB"/>
		<stop  offset="0.8357" style="stop-color:#A2D4EA"/>
		<stop  offset="0.8548" style="stop-color:#89CEE8"/>
		<stop  offset="0.8751" style="stop-color:#67C7E5"/>
		<stop  offset="0.8963" style="stop-color:#3BBEE2"/>
		<stop  offset="0.918" style="stop-color:#06B2DE"/>
		<stop  offset="0.9202" style="stop-color:#00B1DE"/>
		<stop  offset="1" style="stop-color:#007FAA"/>
	</linearGradient>
	<path fill="url(#SVGID_5_)" d="M192.3,39.1c-0.3-1.6-0.6-3.1-1.1-4.4c-2.8-7.5-8.5-10.9-16.3-13.1c-16.8-4.8-53.2-6-92.6,12
		c-25.6,11.7-63,40-70.7,54.3c-0.2,0.3-0.3,0.8-0.4,1.3c-0.1,0.7,0.1,1.2,0.5,1.7c0.4,0.5,1.1,0.7,1.7,0.6c0.5-0.1,0.9-0.3,1.3-0.5
		c0.1,0,0.2-0.1,0.2-0.1s45-34.1,102.3-34.2c-0.1,0,0.1,0,0,0c55.4-0.1,70.8,22.3,55.3,56.4l-0.1,0.2c1.2-2.3,2.3-4.5,3.4-6.8
		C186.4,83.1,194.4,54.8,192.3,39.1z"/>
</g>
<g id="note">
</g>
</svg>
