<?xml version="1.0" encoding="utf-8"?>
<!-- Generator: Adobe Illustrator 18.1.1, SVG Export Plug-In . SVG Version: 6.00 Build 0)  -->
<svg version="1.1" xmlns="http://www.w3.org/2000/svg" xmlns:xlink="http://www.w3.org/1999/xlink" x="0px" y="0px"
	 viewBox="0 0 680.3 198.4" enable-background="new 0 0 680.3 198.4" xml:space="preserve">
<g id="_x39__PFA_Cleaned_Up">
</g>
<g id="note">
	<g>
		<g>
			<rect x="241.1" y="35.7" fill="#616365" width="10.5" height="141.4"/>
			<path fill="#616365" d="M278.6,106.8v-0.4c0-40,29.9-73.1,70.7-73.1c25.2,0,40.4,9.3,54.9,22.6l-7.5,7.7
				c-12.3-11.9-26.4-20.8-47.7-20.8c-33.9,0-59.6,27.7-59.6,63.2v0.4c0,35.8,26.1,63.6,59.8,63.6c20.4,0,34.3-7.9,48.7-22l7.1,6.9
				c-14.9,14.7-31.1,24.6-56.1,24.6C308.5,179.5,278.6,147.4,278.6,106.8"/>
			<polyline fill="#616365" points="435.3,35.7 445.8,35.7 445.8,167.4 528.8,167.4 528.8,177 435.3,177 435.3,35.7 			"/>
			<path fill="#616365" d="M552.5,35.7h51.3c31.1,0,52.5,16,52.5,43.2v0.4c0,29.7-25.6,45-55.1,45H563V177h-10.5V35.7 M601.8,114.7
				c26.3,0,44-13.7,44-34.7v-0.4c0-22.4-17.4-34.1-42.8-34.1h-40v69.3H601.8z"/>
		</g>
		<linearGradient id="SVGID_1_" gradientUnits="userSpaceOnUse" x1="73.7087" y1="180.1461" x2="73.7087" y2="78.5459">
			<stop  offset="0.227" style="stop-color:#1D4880"/>
			<stop  offset="0.3439" style="stop-color:#2A6A9A"/>
			<stop  offset="0.495" style="stop-color:#398FB7"/>
			<stop  offset="0.6168" style="stop-color:#43A7C9"/>
			<stop  offset="0.6933" style="stop-color:#46AFD0"/>
			<stop  offset="0.761" style="stop-color:#4EB1D2"/>
			<stop  offset="0.8671" style="stop-color:#65B8D6"/>
			<stop  offset="0.908" style="stop-color:#6FBBD8"/>
		</linearGradient>
		<path fill="url(#SVGID_1_)" d="M76.2,78.5c-22.6,0-42,10.3-49.2,15.4c-0.2,0.2-0.3,0.2-0.5,0.4l-0.1,0.1c-0.5,0.4-1.2,1.3-1.2,2.1
			c0,1.6,1.2,2.1,2.6,2c0.3,0,0.6-0.1,0.9-0.2l0,0c70.1-27.3,70.3,50.2,64.8,75.6l0,0l-0.1,0.3c0,0.1,0,0.2,0,0.3
			c-0.2,2.3,1.6,10.2,11.8,2.1c3.3-2.6,8.8-9.3,14.6-18.6C124.8,132.2,126.4,78.5,76.2,78.5z"/>
		<path opacity="0.16" fill="#FFFFFF" d="M76.2,78.5c-22.6,0-42,10.3-49.2,15.4c-0.2,0.2-0.3,0.2-0.5,0.4l-0.1,0.1
			c-0.5,0.4-1.2,1.3-1.2,2.1c0,1.6,1.2,2.1,2.6,2c0.3,0,0.6-0.1,0.9-0.2l0,0C98.9,71.1,99,148.6,93.5,174l0,0.2c0,0.1,0,0.2,0,0.3
			c-0.2,2.3,1.6,10.2,11.8,2.1c3.3-2.6,8.8-9.3,14.6-18.6C124.8,132.2,126.4,78.5,76.2,78.5z"/>
		<linearGradient id="SVGID_2_" gradientUnits="userSpaceOnUse" x1="107.8043" y1="180.1161" x2="107.8043" y2="104.925">
			<stop  offset="0.2025" style="stop-color:#1D4880"/>
			<stop  offset="0.4832" style="stop-color:#2F76A4"/>
			<stop  offset="0.8037" style="stop-color:#46AFD0"/>
		</linearGradient>
		<path fill="url(#SVGID_2_)" d="M93.5,174.3c0,0.1,0,0.1,0,0.2c-0.2,2.3,1.6,10.2,11.8,2.1c3.3-2.6,8.8-9.3,14.6-18.6
			c2.7-13.9,4.4-35.7-2.4-53C117.2,142.4,104.8,162.1,93.5,174.3z"/>
		<linearGradient id="SVGID_3_" gradientUnits="userSpaceOnUse" x1="76.3509" y1="134.8075" x2="183.4651" y2="95.8212">
			<stop  offset="0" style="stop-color:#F9A620"/>
			<stop  offset="0.1106" style="stop-color:#F39921"/>
			<stop  offset="0.3173" style="stop-color:#E57523"/>
			<stop  offset="0.5957" style="stop-color:#CD3C26"/>
			<stop  offset="0.7178" style="stop-color:#C22128"/>
			<stop  offset="0.8896" style="stop-color:#A21D2A"/>
		</linearGradient>
		<path fill="url(#SVGID_3_)" d="M118.2,55.9c0.1,0,0.2,0,0.3,0c16,0.5,20.4,14.2,21.3,17.2c12.2,40.2-23.7,94.7-34.5,103.3
			c-8.7,6.9-11.3,2.1-11.7-0.8c0,0,0-0.1,0-0.1c0,0,0,0,0-0.1c0,0,0,0,0,0c-0.1-0.5-0.1-0.9,0-1.2c-3,13.6,8.2,16.9,22.9,9.2
			c21-11.1,45.1-45.5,56.3-69.2l0.8-1.8C189.1,78.3,173.5,55.1,118.2,55.9z"/>
		<linearGradient id="SVGID_4_" gradientUnits="userSpaceOnUse" x1="183.818" y1="91.6754" x2="119.1224" y2="54.3233">
			<stop  offset="3.680980e-02" style="stop-color:#790708"/>
			<stop  offset="0.2726" style="stop-color:#AD161A"/>
			<stop  offset="0.4785" style="stop-color:#D62229"/>
		</linearGradient>
		<path fill="url(#SVGID_4_)" d="M118.2,55.9c0.1,0,0.2,0,0.3,0c16,0.5,20.4,14.2,21.3,17.2c0.4,1.4,0.8,2.8,1.1,4.2
			c22.1,2.2,33.7,11.7,36,26.2C186,74.4,168.6,55.2,118.2,55.9z"/>
		<linearGradient id="SVGID_5_" gradientUnits="userSpaceOnUse" x1="32.0092" y1="33.4524" x2="183.8431" y2="88.7154">
			<stop  offset="1.840490e-02" style="stop-color:#203E78"/>
			<stop  offset="0.1718" style="stop-color:#203E78"/>
			<stop  offset="0.4847" style="stop-color:#009CC9"/>
			<stop  offset="0.8037" style="stop-color:#B6D8EB"/>
			<stop  offset="0.8181" style="stop-color:#B1D7EB"/>
			<stop  offset="0.8357" style="stop-color:#A2D4EA"/>
			<stop  offset="0.8548" style="stop-color:#89CEE8"/>
			<stop  offset="0.8751" style="stop-color:#67C7E5"/>
			<stop  offset="0.8963" style="stop-color:#3BBEE2"/>
			<stop  offset="0.918" style="stop-color:#06B2DE"/>
			<stop  offset="0.9202" style="stop-color:#00B1DE"/>
			<stop  offset="1" style="stop-color:#007FAA"/>
		</linearGradient>
		<path fill="url(#SVGID_5_)" d="M193.3,38.9c-0.3-1.6-0.6-3.1-1.1-4.4c-2.8-7.6-8.5-10.9-16.3-13.1c-16.8-4.8-53.3-6-92.7,12
			c-25.6,11.7-63.1,40-70.9,54.3C12.1,88,12,88.5,11.9,89c-0.1,0.7,0.1,1.2,0.5,1.7c0.4,0.5,1.1,0.7,1.7,0.6
			c0.5-0.1,0.9-0.3,1.3-0.5c0.1,0,0.2-0.1,0.2-0.1S60.6,56.4,118,56.3c-0.1,0,0.1,0,0,0c55.5-0.1,71,22.4,55.3,56.5l-0.1,0.2
			c1.2-2.3,2.3-4.5,3.4-6.8C187.3,83,195.4,54.6,193.3,38.9z"/>
	</g>
	<g>
	</g>
	<g>
	</g>
	<g>
	</g>
	<g>
	</g>
	<g>
	</g>
	<g>
	</g>
</g>
</svg>
