<?xml version="1.0" encoding="utf-8"?>
<!-- Generator: Adobe Illustrator 18.1.1, SVG Export Plug-In . SVG Version: 6.00 Build 0)  -->
<svg version="1.1" id="Layer_1" xmlns="http://www.w3.org/2000/svg" xmlns:xlink="http://www.w3.org/1999/xlink" x="0px" y="0px"
	 viewBox="-183 9.9 592.4 543.1" enable-background="new -183 9.9 592.4 543.1" xml:space="preserve">
<g>
	<path fill="#8C2332" d="M305.8,87.8c52.9,70,66.5,167.8,33,249.1C307.5,419.3,230.6,481.1,144,495.8
		c-86.4,16.1-179.6-16.6-237.2-82.9c-58.7-65.1-80.2-161.9-53.6-245.5l-12-3.6c-27.9,87.7-5.4,189.1,56.2,257.4
		c60.5,69.6,158.1,103.8,248.8,86.9c90.7-15.4,171.4-80.3,204.2-166.6c35.1-85.3,20.8-187.8-34.7-261.3L305.8,87.8z"/>
	<path fill="#E7392C" d="M368.9,171.2c31.8,114.2-19.9,244.3-120.6,306.5c-99.4,64.7-239.1,54.7-328.5-23L-98.2,476
		c98.2,85.4,252,96.4,361.3,25.2C374,432.9,430.8,289.8,395.8,164.1L368.9,171.2z"/>
	<path fill="#FFB500" d="M278.6,12.9c66.7,51.5,109.2,133.3,111.8,217.7c3.5,84.3-31.5,169.2-93.9,226
		c-62.1,57.2-149.4,85-233.2,74.4c-83.9-9.9-161.4-59.2-207.5-129.7l5.8-3.8c45,68.9,120.6,117,202.5,126.7
		c81.7,10.4,167-16.8,227.6-72.6c60.9-55.4,95.1-138.3,91.7-220.6c-2.5-82.4-44-162.2-109.1-212.5L278.6,12.9z"/>
	<path fill="#E7392C" d="M262.9,18C339.4,73,383.7,168.6,376,262.4c-6,94-63.9,182.1-147.6,225.3c-82.9,44.4-188.4,41.8-269.3-6.2
		c-81.4-47.1-135.2-138-136.8-232l-2.3,0.1c1.6,94.8,55.9,186.4,138,233.9c81.5,48.5,187.9,51.1,271.5,6.3
		c84.4-43.5,142.9-132.4,148.9-227.2c7.7-94.6-37-191.1-114.1-246.5L262.9,18z"/>
</g>
</svg>
