<?xml version="1.0" encoding="utf-8"?>
<!-- Generator: Adobe Illustrator 16.2.1, SVG Export Plug-In . SVG Version: 6.00 Build 0)  -->
<!DOCTYPE svg PUBLIC "-//W3C//DTD SVG 1.1//EN" "http://www.w3.org/Graphics/SVG/1.1/DTD/svg11.dtd">
<svg version="1.1" id="Layer_1" xmlns="http://www.w3.org/2000/svg" xmlns:xlink="http://www.w3.org/1999/xlink" x="0px" y="0px"
	 width="592.444px" height="543.141px" viewBox="0 0 592.444 543.141" enable-background="new 0 0 592.444 543.141"
	 xml:space="preserve">
<g>
	<path fill="#FFB700" d="M488.812,77.972c52.873,69.991,66.489,167.832,33.007,249.146
		c-31.326,82.275-108.223,144.105-194.774,158.805c-86.421,16.059-179.553-16.568-237.242-82.891
		c-58.708-65.086-80.188-161.855-53.585-245.47l-11.996-3.643c-27.867,87.747-5.36,189.15,56.227,257.423
		c60.485,69.553,158.089,103.758,248.783,86.938c90.687-15.4,171.39-80.311,204.228-166.562
		c35.051-85.303,20.844-187.848-34.656-261.262L488.812,77.972z"/>
	<path fill="#FFFFFF" d="M551.888,161.363c31.824,114.25-19.895,244.293-120.646,306.465
		c-99.42,64.68-239.056,54.662-328.458-22.955l-17.948,21.281c98.226,85.373,252.007,96.398,361.259,25.234
		c110.893-68.359,167.723-211.401,132.7-337.112L551.888,161.363z"/>
	<path fill="#1E428A" d="M461.574,3c66.707,51.492,109.175,133.27,111.786,217.651c3.505,84.3-31.524,169.175-93.934,225.968
		c-62.095,57.242-149.435,85.037-233.181,74.406c-83.914-9.896-161.401-59.197-207.472-129.744l5.822-3.781
		c44.959,68.865,120.61,117.014,202.503,126.676c81.692,10.373,167.001-16.777,227.595-72.643
		c60.907-55.428,95.087-138.322,91.685-220.588c-2.547-82.369-43.986-162.172-109.085-212.458L461.574,3z"/>
	<path fill="#0777A6" d="M445.92,8.091c76.44,55.046,120.764,150.647,113.128,244.449c-5.987,94.001-63.944,182.06-147.611,225.259
		c-82.906,44.42-188.385,41.811-269.276-6.227C60.808,424.426,6.95,333.572,5.348,239.581L3,239.634
		c1.602,94.776,55.907,186.405,137.953,233.938c81.542,48.494,187.924,51.08,271.536,6.318
		c84.375-43.545,142.855-132.359,148.902-227.159c7.697-94.602-37.032-191.05-114.111-246.496L445.92,8.091z"/>
</g>
</svg>
