<?xml version="1.0" encoding="utf-8"?>
<!-- Generator: Adobe Illustrator 17.1.0, SVG Export Plug-In . SVG Version: 6.00 Build 0)  -->
<!DOCTYPE svg PUBLIC "-//W3C//DTD SVG 1.1//EN" "http://www.w3.org/Graphics/SVG/1.1/DTD/svg11.dtd">
<svg version="1.1" xmlns="http://www.w3.org/2000/svg" xmlns:xlink="http://www.w3.org/1999/xlink" x="0px" y="0px"
	 viewBox="0 0 1500 1500" enable-background="new 0 0 1500 1500" xml:space="preserve">
<g id="red">
	<g>
		<g>
			<path fill="#8C2332" d="M463.9,174.1C280.3,290.2,163.3,505,169.8,722.7c0.8,218.1,125,428.5,312.8,538.1
				c186.3,112.7,430.6,118.4,622.2,15c192.9-99.5,327.2-305.1,338.6-522.2l30.9,2c-12.1,227.7-152.7,443.1-355.1,547.6
				c-200.9,108.4-457,102.4-652.5-15.8c-196.8-114.8-327.2-335.7-328-564.2C132.1,494.9,254.6,269.7,447.3,148L463.9,174.1z"/>
			<path fill="#FFFFFF" d="M244.9,312.3c-173.5,237-167.1,583.6,12,815.6c173.9,236.7,506.3,335.4,781.3,233.6l23,65
				c-302.2,112.1-668.2,3.4-859.3-257C4.6,914.3-2.2,533.2,188.7,272.4L244.9,312.3z"/>
			<path fill="#FFB500" d="M592.5,24.2C392.9,85.3,223.1,237.8,143.4,431c-81.7,192.3-74.7,419.7,20.3,605.8
				c93.9,186.9,272.1,327.6,475.5,376.1c203.1,50.3,425.8,3.8,594.2-119.6l-10.2-13.9c-164.3,120.4-381.7,165.8-580,116.7
				c-198.4-47.3-372.4-184.7-464.1-367c-92.8-181.7-99.6-403.7-19.9-591.3C237,249.1,402.8,100.3,597.6,40.6L592.5,24.2z"/>
			<path fill="#E7392C" d="M624.3,49.6c-225.2,60.8-411.4,243.6-475.7,467.7c-68.1,223.1-10.7,477.8,145.5,651
				c153.4,175.3,400.1,261.4,629.5,220.7c229.7-38.2,433.8-201.7,519.6-418.2l5.4,2.2c-86.5,218.3-292.4,383.2-524,421.7
				c-231.3,41.1-480.2-45.7-634.8-222.5C132.3,997.6,74.3,740.7,143.1,515.7c64.8-226,252.6-410.4,479.7-471.7L624.3,49.6z"/>
		</g>
	</g>
</g>
<g id="orange" display="none">
	<g display="inline">
		<path fill="#E63C2F" d="M1373.9,868.8c-61.7,204.6-234.5,372-442.4,422.9c-206.8,56.7-438.9-5.8-592.1-154.8
			C183.6,990.1,113.9,760.2,161.5,551.4c43.6-209,203.1-390.3,405.6-458.1l-10-28.8c-212.6,71.3-379.7,261.2-425.4,480.4
			c-49.8,218.9,23.2,460,186.7,614c160.4,156.4,404,221.7,620.8,162.4c218.1-53.7,399.3-229,464-443.5L1373.9,868.8z"/>
		<path fill="#FFB700" d="M1300.5,1112.8c-178.9,226.7-508.9,311.8-775.9,203.1c-269.9-102.5-451-391.5-426.7-678.8l-67.7-4.7
			c-26.7,315.8,172.6,634,469.5,746.6c293.7,119.8,656.6,26,853.6-223.5L1300.5,1112.8z"/>
		<path fill="#8B2332" d="M1482.2,707.6c-5.4,205.2-105.2,406.2-267.3,532.5c-160.7,128.1-378,181.2-579.3,140.1
			c-201.9-39.8-382-171.7-481.4-351.6C53.1,849.4,38.7,626.2,111.2,434.2l15.8,6c-70.8,187.3-56.7,405.3,42,580.2
			c97,175.5,272.9,304.3,469.9,343.1c196.5,40.2,408.6-11.7,565.4-136.6c158.3-123.4,255.6-319.5,260.9-519.8L1482.2,707.6z"/>
		<path fill="#E63C2F" d="M1449.7,684.2c1.6,229.3-122.7,453.8-318.1,573.6c-193.4,123.3-449.9,135.9-655.1,33.4
			c-206.4-99.2-353-310.4-374.5-538.4c-24.4-227.6,77-464.1,259.5-602.4L358,146C173.9,285.3,71.8,523.8,96.3,753.3
			c21.8,230.1,169.6,443,377.8,542.9c206.9,103.4,465.4,90.8,660.6-33.6c197-120.9,322.4-347.3,320.7-578.6L1449.7,684.2z"/>
	</g>
</g>
<g id="blue" display="none">
	<g display="inline">
		<path fill="#46A8C6" d="M1221.9,1130.2c-143.1,151.4-366.9,222-570.6,175.8C446.2,1265,271,1109.3,202.5,912.3
			c-71.9-196.1-32.3-427.1,100.3-588.5c129.3-163.2,347.6-251.8,554-222.6l3.8-29.5C644,41.2,415.4,133.9,279.7,305.2
			c-139,169.2-180.6,411.4-105.3,617.1c71.7,206.5,255.7,369.9,470.7,412.7c213.7,48.5,448.3-25.4,598.4-184.4L1221.9,1130.2z"/>
		<path fill="#FFB700" d="M1051.4,1310.9c-255.1,119.7-580.1,49.8-765.6-161.6C95.1,942.1,63.4,611,210,370.8l-57-33.6
			C-8.2,601,26.6,965.6,236.6,1193.5c203.9,232.7,561.4,309.3,842.2,177.7L1051.4,1310.9z"/>
		<path fill="#1E428A" d="M1386.8,1036.8c-94.4,176.7-269.1,308.4-465.7,347.8c-196.2,41.5-408.9-7-566.6-130.7
			C195.9,1131,96.3,937.3,88.1,737.1c-10-200.5,74.9-401.6,222-537.4l11.1,12.1C177.8,344.3,94.8,540.7,104.6,736.3
			c8,195.4,105.2,384.6,260.1,504.5c153.8,120.8,361.5,168.2,552.9,127.7c192-38.4,362.5-167.1,454.6-339.5L1386.8,1036.8z"/>
		<path fill="#FFB700" d="M1368.7,1002.2c-98.7,200.8-305.2,342.4-527.9,361.6c-222.6,23.1-451.8-77.9-586.1-256.9
			C117.9,930.2,82.2,682,163,473.6c78.2-209.2,269.8-371.2,489.4-412.2l-1-5.4C429.8,97.2,236.6,260.6,157.8,471.6
			c-81.5,210.2-45.5,460.5,92.4,638.6c135.4,180.6,366.5,282.4,591,259.2c224.7-19.3,432.9-162.2,532.5-364.7L1368.7,1002.2z"/>
	</g>
</g>
</svg>
