<?xml version="1.0" encoding="utf-8"?>
<!-- Generator: Adobe Illustrator 18.1.0, SVG Export Plug-In . SVG Version: 6.00 Build 0)  -->
<svg version="1.1" id="Layer_3" xmlns="http://www.w3.org/2000/svg" xmlns:xlink="http://www.w3.org/1999/xlink" x="0px" y="0px"
	 viewBox="0 0 698.3 793.1" style="enable-background:new 0 0 698.3 793.1;" xml:space="preserve">
<g>
	<path style="fill:#46A8C6;" d="M506.3,682.7c96.5-73.2,149.9-198.2,135.7-318.5c-12.1-120.3-90.2-231.7-200.3-282.3
		C332.9,28.4,197.3,38.1,96.1,104.4l9,13.8C201.5,55,331,45.7,434.6,96.7C539.7,145,614,251.2,625.6,366
		c13.5,114.7-37.3,233.9-129.4,303.7"/>
	<path style="fill:#FFB700;" d="M220,42.8c152.5-31.7,318.5,47.5,391.2,185c76.1,135.9,50.7,318.1-58.9,428.5l26.3,25.4
		c120.5-121.3,148.5-321.9,64.8-471.4C563.4,59,380.9-28,213,6.8L220,42.8z"/>
	<path style="fill:#1E428A;" d="M4.4,147.3c73.4-83,184.3-131.5,295.1-127.5C410.4,22.6,518.6,76,587.6,162.7
		c69.6,86.4,98.4,203.4,77.1,312.2C644.4,584,572.9,681.3,476.4,735.6l-4.4-8c94.2-52.9,164-147.9,183.8-254.4
		c20.7-106.2-7.3-220.4-75.3-304.7c-67.3-84.7-173-136.8-281.1-139.5C191.1,25,82.9,72.4,11.3,153.3L4.4,147.3z"/>
	<path style="fill:#FFB700;" d="M9.8,168.2c78.8-95.4,208-145.1,330.3-126.9c122.7,16.1,233.1,99.8,282.4,213.3
		c50.9,112.5,38.3,250.6-31.8,352.4c-68.9,102.5-192.7,165.2-316.1,159l-0.1,3c124.4,6.2,249.3-56.9,318.7-160.3
		c70.8-102.6,83.4-241.9,32.1-355.4c-49.7-114.5-161-198.9-284.7-215.1C217.2,19.9,86.9,70.1,7.4,166.2L9.8,168.2z"/>
</g>
</svg>
