<?xml version="1.0" encoding="utf-8"?>
<!-- Generator: Adobe Illustrator 18.1.0, SVG Export Plug-In . SVG Version: 6.00 Build 0)  -->
<svg version="1.1" id="Layer_1" xmlns="http://www.w3.org/2000/svg" xmlns:xlink="http://www.w3.org/1999/xlink" x="0px" y="0px"
	 viewBox="0 0 371.3 386.5" style="enable-background:new 0 0 371.3 386.5;" xml:space="preserve">
<g>
	<path style="fill:#FFFFFF;" d="M367.6,196.6c-5,62.2-48.4,119.2-107.3,140.4c-58.3,22.3-128.5,7.7-172.9-36.1
		c-45.6-42.7-63-112.3-42.6-171.5C63.8,70,119.1,24.4,181,16.9l5.9,45.7c-44.5,5.4-84.7,38.4-98.3,81.2
		c-14.8,43-2.3,92.8,30.8,123.9c31.8,31.6,82.9,42.1,124.8,26.1c42.6-15.4,73.8-56.4,77.5-101.4L367.6,196.6z"/>
	<path style="fill:#1E4488;" d="M273.8,352.8c-72,31.4-162,9.4-212.1-51C10.2,242.5,4,150,46.7,84.3l-15.6-9.8
		c-47,72.3-40.1,174.1,16.6,239.2c55,66.4,154,90.6,233.2,56.1L273.8,352.8z"/>
	<path style="fill:#FCB614;" d="M369.4,279c-27.6,48.5-77.4,83.8-132.5,93.3c-55,10-113.9-5.1-156.8-40.8
		C36.8,296,10.6,241.2,9.9,185.4c-1.2-55.9,24-111.3,66-148l3,3.5c-41,35.8-65.7,89.8-64.5,144.4c0.7,54.5,26.3,108,68.5,142.6
		c42,34.9,99.5,49.7,153.1,39.9c53.8-9.2,102.3-43.7,129.3-91.1L369.4,279z"/>
	<path style="fill:#1E4488;" d="M234.5,57.2c-52.5-14.3-112.3,9-140.8,55.5c-29.7,45.5-26.2,109.6,9,151.2
		c33.9,42.6,96.1,58.6,146.5,38.4c51.1-18.9,85.8-73,82-127.2l20.7-1.1c4.4,62.9-35.8,125.7-95.1,147.6
		c-58.5,23.5-130.6,4.9-170-44.6c-40.8-48.3-44.9-122.6-10.5-175.4c33.1-53.9,102.5-81,163.4-64.4L234.5,57.2z"/>
	<path style="fill:#047AA6;" d="M364.6,269.2c-29.1,55.2-87.7,93-149.9,96.6c-62.2,4.7-125.3-25.2-161.3-76.1
		C16.7,239.4,8.7,170,32.8,112.6c23.4-57.7,78.1-101.3,139.6-111L172.1,0C110.1,9.8,55,53.8,31.3,112C7,169.9,15.1,239.9,52.1,290.6
		c36.3,51.3,99.9,81.5,162.6,76.8c62.8-3.6,121.9-41.8,151.2-97.5L364.6,269.2z"/>
	<path style="fill:#FCB614;" d="M114.9,282l-5.7,6.8C52.3,243.3,41.7,152.4,87,95.2C129.2,35.8,219,20,279,61.4l-4.9,7.4
		c-56.2-38.8-140.5-24-180,31.7C51.6,154.1,61.6,239.4,114.9,282"/>
</g>
</svg>
