<?xml version="1.0" encoding="utf-8"?>
<!-- Generator: Adobe Illustrator 18.1.0, SVG Export Plug-In . SVG Version: 6.00 Build 0)  -->
<svg version="1.1" id="Layer_3" xmlns="http://www.w3.org/2000/svg" xmlns:xlink="http://www.w3.org/1999/xlink" x="0px" y="0px"
	 viewBox="0 0 647 583.6" style="enable-background:new 0 0 647 583.6;" xml:space="preserve">
<g>
	<path style="fill:#8D2433;" d="M564.3,168.6C507.4,89.1,407.8,43.2,310.4,51.9c-97.3,7-189,67.5-232.3,155.2
		c-45.6,86.5-40.9,196.2,10.3,279.2l11.3-6.9C51,400.2,46.5,295.6,89.9,213.1c41.4-83.7,128.7-141.2,221.6-148
		c92.8-8.3,187.8,35.4,242.1,111.3"/>
	<path style="fill:#FFFFFF;" d="M41.6,385C19.4,261.3,87.1,129.2,199.7,73.7C311.1,15.4,457.5,40,544,131l21.1-20.7
		c-95.1-100-256.3-127.1-378.8-63C62.5,108.3-11.9,253.6,12.4,389.8L41.6,385z"/>
	<path style="fill:#FDB515;" d="M121,561.3C55.7,500.2,19.1,409.6,24.9,320.4C29.6,231,75.1,144.9,146.7,91.2
		C218,37,313,16.5,400.3,36.1c87.6,18.9,164.4,78.7,206,157.8l-6.5,3.4c-40.5-77.2-115.6-135.6-201.1-154
		c-85.2-19.1-177.9,0.9-247.5,53.8C81.3,149.5,36.9,233.5,32.2,320.7c-5.6,87.2,30.1,175.6,93.8,235.2L121,561.3z"/>
	<path style="fill:#E73B2D;" d="M138,557.5C62.8,491.7,25.7,386.3,43.1,288.1c15.8-98.6,85.8-185.8,178.5-222.9
		C313.6,26.6,424.7,40,505.2,98.8C586.3,156.7,634,258,626.3,357.4l2.4,0.2c7.8-100.2-40.3-202.4-122.1-260.8
		c-81.2-59.4-193.2-72.8-285.9-34c-93.5,37.5-164.1,125.3-180,224.8C23,386.7,60.6,493,136.3,559.3L138,557.5z"/>
</g>
</svg>
