<?xml version="1.0" encoding="utf-8"?>
<!-- Generator: Adobe Illustrator 18.1.1, SVG Export Plug-In . SVG Version: 6.00 Build 0)  -->
<svg version="1.1" id="Layer_1" xmlns="http://www.w3.org/2000/svg" xmlns:xlink="http://www.w3.org/1999/xlink" x="0px" y="0px"
	 width="1170px" height="1200px" viewBox="0 0 1170 1200" enable-background="new 0 0 1170 1200" xml:space="preserve">
<g>
	<path fill="#FFB600" d="M958.2,678.7c96.3-248.4,54.9-545.7-110.3-755.5C688-291.3,411.9-408.1,146.8-379
		c-266,24.7-511,197.3-624.6,439c-117.5,239-99.9,539.7,47.1,762l-32,20.6C-616.8,609.2-635.3,294.3-512,43.5
		c119.1-253.5,375.9-434.5,654.9-460.5c277.9-30.6,567.6,92.2,735.2,316.9c173.3,220.2,216.9,531.7,115.6,792.3L958.2,678.7z"/>
	<path fill="#3DA8C7" d="M1073.4,382.6c-1.8-360.3-261-697.4-607.1-795.5C122.2-519.4-277.6-374.2-474.5-73l-70.1-47.3
		c216.2-331.1,656.4-491.1,1034.9-373.8C871-386.4,1155.8-15.5,1158,381L1073.4,382.6z"/>
	<path fill="#EB3923" d="M940.9,920.4c152.2-206,208.4-480.2,146-728.8C1027.1-57.7,854.3-276.8,624.8-391
		c-229-115.8-507.4-124.4-743.2-23.9c-237.1,98.6-422.7,307.1-498.7,551.5l20.1,6.2c74.2-238.5,255.4-442.2,486.8-538.3
		c230.1-98.1,501.9-89.7,725.4,23.4c224,111.3,392.8,325.2,451.1,568.5c61,242.8,6.1,510.4-142.4,711.4L940.9,920.4z"/>
	<path fill="#3DA8C7" d="M891,918.5c177.7-224.2,227.8-540.5,127.7-808.3c-95.6-269.8-338.1-479.1-618.6-535.8
		C121-486.5-185.3-391.4-381.6-183.7C-580.2,21.5-662.2,331.7-588.9,607.9l-6.8,1.7c-74.1-278.4,8.6-591.3,208.9-798.2
		c198-209.5,506.9-305.4,788.3-243.9c282.9,57.3,527.4,268.2,623.9,540.2c101,270.1,50.4,589-128.8,815.2L891,918.5z"/>
</g>
</svg>
